<?xml version="1.0" encoding="iso-8859-1"?>
<!-- Uploaded to: SVG Repo, www.svgrepo.com, Generator: SVG Repo Mixer Tools -->
<svg fill="#000000" height="800px" width="800px" version="1.1" id="Layer_1" xmlns="http://www.w3.org/2000/svg" xmlns:xlink="http://www.w3.org/1999/xlink" 
	 viewBox="0 0 512.002 512.002" xml:space="preserve">
<g>
	<g>
		<path d="M412.824,99.179c-4.556-4.556-11.932-4.556-16.487,0c-4.544,4.544-4.544,11.92,0,16.476
			c4.556,4.544,11.932,4.544,16.487,0C417.368,111.098,417.368,103.723,412.824,99.179z"/>
	</g>
</g>
<g>
	<g>
		<path d="M412.812,396.337c-4.544-4.556-11.932-4.556-16.476,0c-4.556,4.544-4.556,11.92,0,16.476
			c4.544,4.544,11.932,4.544,16.476,0C417.368,408.257,417.368,400.881,412.812,396.337z"/>
	</g>
</g>
<g>
	<g>
		<path d="M115.665,99.166c-4.556-4.544-11.932-4.544-16.487,0c-4.544,4.556-4.544,11.932,0,16.476
			c4.556,4.557,11.932,4.557,16.487,0C120.21,111.097,120.21,103.722,115.665,99.166z"/>
	</g>
</g>
<g>
	<g>
		<path d="M115.654,396.326c-4.544-4.544-11.932-4.544-16.476,0c-4.556,4.556-4.556,11.932,0,16.476
			c4.544,4.556,11.932,4.556,16.476,0C120.21,408.257,120.21,400.881,115.654,396.326z"/>
	</g>
</g>
<g>
	<g>
		<path d="M499.351,176.532V71.797c0-27.575-22.439-50.01-50.022-50.01h-89.966c-65.848-29.048-140.886-29.049-206.736,0H62.673
			c-27.582,0-50.022,22.435-50.022,50.01v104.737c-16.715,51.324-16.715,107.591,0,158.915v104.737
			c0,27.575,22.439,50.01,50.022,50.01h89.967c32.922,14.526,68.131,21.808,103.357,21.808c35.22,0,70.445-7.285,103.368-21.808
			h89.966c27.582,0,50.022-22.435,50.022-50.01V335.447C516.066,284.122,516.066,227.855,499.351,176.532z M449.33,45.09
			c14.732,0,26.718,11.98,26.718,26.706v53.303c-10.776-18.095-23.81-34.853-39.056-50.1
			c-11.118-11.118-23.109-21.106-35.873-29.909H449.33z M35.955,71.797c0-14.726,11.985-26.706,26.718-26.706h48.214
			C98.119,53.897,86.127,63.884,75.012,75c-15.247,15.247-28.281,32.004-39.057,50.1V71.797z M62.673,466.889
			c-14.733,0-26.718-11.982-26.718-26.706v-53.303c10.776,18.095,23.81,34.853,39.056,50.1
			c11.118,11.118,23.109,21.106,35.873,29.909H62.673z M476.049,440.183c-0.001,14.725-11.987,26.706-26.719,26.706h-48.211
			c12.764-8.803,24.754-18.79,35.873-29.909c15.247-15.247,28.281-32.004,39.057-50.1V440.183z M476.649,329.92v0.002
			c-11.469,34.324-30.356,64.8-56.135,90.578c-19.948,19.948-42.957,35.904-68.393,47.427
			c-61.091,27.693-131.159,27.693-192.24-0.001c-25.434-11.521-48.443-27.477-68.391-47.426
			c-25.78-25.779-44.666-56.254-56.135-90.581c-15.939-47.675-15.939-100.185,0-147.863c11.469-34.324,30.356-64.8,56.135-90.578
			c19.934-19.934,42.942-35.893,68.382-47.427c30.544-13.846,63.333-20.767,96.124-20.767s65.583,6.922,96.128,20.768
			c25.434,11.521,48.443,27.478,68.391,47.426c25.78,25.779,44.666,56.254,56.135,90.581
			C492.587,229.735,492.587,282.245,476.649,329.92z"/>
	</g>
</g>
<g>
	<g>
		<path d="M443.173,236.531c-0.661-6.402-6.391-11.051-12.788-10.392c-6.402,0.662-11.054,6.388-10.391,12.789
			c5.135,49.667-12.147,98.382-47.416,133.648c-31.139,31.139-72.541,48.287-116.582,48.287s-85.445-17.149-116.581-48.286
			c-64.277-64.287-64.277-168.89,0-233.176c31.137-31.139,72.54-48.287,116.582-48.287c44.041,0,85.443,17.149,116.582,48.287
			c12.769,12.769,23.269,27.366,31.206,43.384c2.857,5.767,9.846,8.125,15.614,5.268c5.767-2.856,8.125-9.847,5.268-15.612
			c-9.064-18.292-21.044-34.952-35.608-49.517c-35.539-35.539-82.795-55.112-133.06-55.112c-50.266,0-97.521,19.573-133.061,55.114
			c-73.36,73.372-73.36,192.759,0,266.131c35.539,35.539,82.795,55.112,133.06,55.112c50.265,0,97.521-19.573,133.06-55.112
			C429.308,348.803,449.034,293.211,443.173,236.531z"/>
	</g>
</g>
<g>
	<g>
		<path d="M437.128,204.864c-0.376-1.34-0.77-2.679-1.177-4.013c-1.876-6.156-8.385-9.623-14.544-7.744
			c-6.155,1.878-9.622,8.391-7.744,14.545c0.358,1.171,0.701,2.343,1.032,3.52c1.445,5.14,6.121,8.501,11.21,8.501
			c1.044,0,2.105-0.142,3.16-0.438C435.26,217.493,438.871,211.058,437.128,204.864z"/>
	</g>
</g>
<g>
	<g>
		<path d="M292.122,244.335c-6.435,0-11.652,5.218-11.652,11.652c0,6.539-2.546,12.685-7.167,17.308
			c-4.618,4.619-10.757,7.161-17.29,7.161c-0.004,0-0.007,0-0.01,0c-13.492,0-24.469-10.977-24.469-24.474
			c-0.002-6.533,2.54-12.676,7.161-17.296c4.62-4.622,10.765-7.167,17.305-7.167c6.435,0,11.652-5.218,11.652-11.652
			c0-6.434-5.217-11.652-11.652-11.652c-12.763,0-24.763,4.969-33.786,13.993c-9.024,9.024-13.992,21.022-13.986,33.779
			c0,26.341,21.43,47.773,47.768,47.773c0.007,0,0.013,0,0.02,0c12.754,0,24.745-4.967,33.765-13.987
			c9.023-9.023,13.993-21.022,13.993-33.786C303.774,249.552,298.557,244.335,292.122,244.335z"/>
	</g>
</g>
</svg>